<?xml version="1.0" encoding="utf-8"?>
<!-- Generator: Adobe Illustrator 19.2.1, SVG Export Plug-In . SVG Version: 6.00 Build 0)  -->
<svg version="1.1" id="Layer_1" xmlns="http://www.w3.org/2000/svg" xmlns:xlink="http://www.w3.org/1999/xlink" x="0px" y="0px"
	 viewBox="0 0 440 440" style="enable-background:new 0 0 440 440;" xml:space="preserve">
<style type="text/css">
	.st0{fill:url(#SVGID_1_);}
	.st1{fill:url(#SVGID_2_);}
	.st2{fill:url(#SVGID_3_);}
	.st3{fill:url(#SVGID_4_);}
	.st4{fill:url(#SVGID_5_);}
	.st5{fill:url(#SVGID_6_);}
</style>
<g>
	<g>
		
			<linearGradient id="SVGID_1_" gradientUnits="userSpaceOnUse" x1="16" y1="51.3085" x2="186.9227" y2="51.3085" gradientTransform="matrix(1 0 0 -1 0 442)">
			<stop  offset="5.200000e-02" style="stop-color:#F78D26"/>
			<stop  offset="0.206" style="stop-color:#F68826"/>
			<stop  offset="0.432" style="stop-color:#F37A25"/>
			<stop  offset="0.477" style="stop-color:#F37625"/>
			<stop  offset="0.616" style="stop-color:#E76623"/>
			<stop  offset="0.836" style="stop-color:#DC5221"/>
			<stop  offset="0.987" style="stop-color:#D84B21"/>
		</linearGradient>
		<path class="st0" d="M101.5,393.4c-36.8,0-68.8-13.2-85.5-32.7c12.6,35,46.1,60,85.5,60s72.8-25,85.5-60
			C170.3,380.2,138.2,393.4,101.5,393.4L101.5,393.4z"/>
		
			<linearGradient id="SVGID_2_" gradientUnits="userSpaceOnUse" x1="16.0561" y1="172.9072" x2="186.9227" y2="172.9072" gradientTransform="matrix(1 0 0 -1 0 442)">
			<stop  offset="5.200000e-02" style="stop-color:#F78D26"/>
			<stop  offset="0.206" style="stop-color:#F68826"/>
			<stop  offset="0.432" style="stop-color:#F37A25"/>
			<stop  offset="0.477" style="stop-color:#F37625"/>
			<stop  offset="0.616" style="stop-color:#E76623"/>
			<stop  offset="0.836" style="stop-color:#DC5221"/>
			<stop  offset="0.987" style="stop-color:#D84B21"/>
		</linearGradient>
		<path class="st1" d="M101.5,266.4c36.8,0,68.8,13.2,85.5,32.7c-12.6-35-46.1-60-85.5-60s-72.8,25-85.4,60
			C32.7,279.6,64.7,266.4,101.5,266.4z"/>
	</g>
	<g>
		
			<linearGradient id="SVGID_3_" gradientUnits="userSpaceOnUse" x1="261.5154" y1="51.3085" x2="432.4381" y2="51.3085" gradientTransform="matrix(1 0 0 -1 0 442)">
			<stop  offset="5.200000e-02" style="stop-color:#F78D26"/>
			<stop  offset="0.206" style="stop-color:#F68826"/>
			<stop  offset="0.432" style="stop-color:#F37A25"/>
			<stop  offset="0.477" style="stop-color:#F37625"/>
			<stop  offset="0.616" style="stop-color:#E76623"/>
			<stop  offset="0.836" style="stop-color:#DC5221"/>
			<stop  offset="0.987" style="stop-color:#D84B21"/>
		</linearGradient>
		<path class="st2" d="M347,393.4c-36.8,0-68.8-13.2-85.5-32.7c12.6,35,46.1,60,85.5,60s72.8-25,85.5-60
			C415.8,380.2,383.7,393.4,347,393.4L347,393.4z"/>
		
			<linearGradient id="SVGID_4_" gradientUnits="userSpaceOnUse" x1="261.5715" y1="172.9072" x2="432.4381" y2="172.9072" gradientTransform="matrix(1 0 0 -1 0 442)">
			<stop  offset="5.200000e-02" style="stop-color:#F78D26"/>
			<stop  offset="0.206" style="stop-color:#F68826"/>
			<stop  offset="0.432" style="stop-color:#F37A25"/>
			<stop  offset="0.477" style="stop-color:#F37625"/>
			<stop  offset="0.616" style="stop-color:#E76623"/>
			<stop  offset="0.836" style="stop-color:#DC5221"/>
			<stop  offset="0.987" style="stop-color:#D84B21"/>
		</linearGradient>
		<path class="st3" d="M347,266.4c36.8,0,68.8,13.2,85.5,32.7c-12.6-35-46.1-60-85.5-60s-72.8,25-85.4,60
			C278.2,279.6,310.2,266.4,347,266.4z"/>
	</g>
</g>
<g>
	
		<linearGradient id="SVGID_5_" gradientUnits="userSpaceOnUse" x1="138.7577" y1="263.8373" x2="309.6804" y2="263.8373" gradientTransform="matrix(1 0 0 -1 0 442)">
		<stop  offset="5.200000e-02" style="stop-color:#F78D26"/>
		<stop  offset="0.206" style="stop-color:#F68826"/>
		<stop  offset="0.432" style="stop-color:#F37A25"/>
		<stop  offset="0.477" style="stop-color:#F37625"/>
		<stop  offset="0.616" style="stop-color:#E76623"/>
		<stop  offset="0.836" style="stop-color:#DC5221"/>
		<stop  offset="0.987" style="stop-color:#D84B21"/>
	</linearGradient>
	<path class="st4" d="M224.2,180.9c-36.8,0-68.8-13.2-85.5-32.7c12.6,35,46.1,60,85.5,60s72.8-25,85.5-60
		C293,167.7,261,180.9,224.2,180.9L224.2,180.9z"/>
	
		<linearGradient id="SVGID_6_" gradientUnits="userSpaceOnUse" x1="138.8138" y1="385.436" x2="309.6804" y2="385.436" gradientTransform="matrix(1 0 0 -1 0 442)">
		<stop  offset="5.200000e-02" style="stop-color:#F78D26"/>
		<stop  offset="0.206" style="stop-color:#F68826"/>
		<stop  offset="0.432" style="stop-color:#F37A25"/>
		<stop  offset="0.477" style="stop-color:#F37625"/>
		<stop  offset="0.616" style="stop-color:#E76623"/>
		<stop  offset="0.836" style="stop-color:#DC5221"/>
		<stop  offset="0.987" style="stop-color:#D84B21"/>
	</linearGradient>
	<path class="st5" d="M224.2,53.8c36.8,0,68.8,13.2,85.5,32.7c-12.6-35-46.1-60-85.5-60s-72.8,25-85.4,60
		C155.5,67.1,187.5,53.8,224.2,53.8z"/>
</g>
</svg>
