<?xml version="1.0" encoding="utf-8"?>
<!-- Generator: Adobe Illustrator 18.1.1, SVG Export Plug-In . SVG Version: 6.00 Build 0)  -->
<svg version="1.1" id="Layer_1" xmlns:sketch="http://www.bohemiancoding.com/sketch/ns"
	 xmlns="http://www.w3.org/2000/svg" xmlns:xlink="http://www.w3.org/1999/xlink" x="0px" y="0px" viewBox="-336 437 351 151"
	 enable-background="new -336 437 351 151" xml:space="preserve">
<title>Group Copy 2</title>
<desc>Created with Sketch.</desc>
<g id="Page-1" sketch:type="MSPage">
	<g id="Home---Desktop-Copy-2" transform="translate(-144.000000, -2506.000000)" sketch:type="MSArtboardGroup">
		<g id="Group" transform="translate(97.000000, 2493.000000)" sketch:type="MSLayerGroup">
			<g id="Group-Copy-2" transform="translate(0.000000, 13.000000)">
				
					<linearGradient id="Oval-7-Copy-2_1_" gradientUnits="userSpaceOnUse" x1="-623.0359" y1="1019.4888" x2="-624.0359" y2="1019.5301" gradientTransform="matrix(348.2257 0 0 -87.3639 217017.5938 89569.3125)">
					<stop  offset="0" style="stop-color:#979797"/>
					<stop  offset="0.2293" style="stop-color:#F1F1F1"/>
					<stop  offset="0.5129" style="stop-color:#FFFFFF"/>
					<stop  offset="1" style="stop-color:#979797"/>
				</linearGradient>
				<path id="Oval-7-Copy-2" fill="none" stroke="url(#Oval-7-Copy-2_1_)" stroke-width="1.465" d="M-100,528.7
					c95.9-18.7,167.6-46.2,160.3-61.5c-7.4-15.3-91-12.6-186.9,6.1c-95.9,18.7-167.6,46.2-160.3,61.5
					C-279.6,550.1-195.9,547.4-100,528.7L-100,528.7z"/>
				
					<linearGradient id="Oval-7-Copy-3_1_" gradientUnits="userSpaceOnUse" x1="-623.0359" y1="1019.4888" x2="-624.0359" y2="1019.5301" gradientTransform="matrix(348.2257 0 0 -87.3639 217017.5938 89569.3125)">
					<stop  offset="0" style="stop-color:#979797"/>
					<stop  offset="0.1977" style="stop-color:#F1F1F1"/>
					<stop  offset="0.567" style="stop-color:#FFFFFF"/>
					<stop  offset="1" style="stop-color:#979797"/>
				</linearGradient>
				<path id="Oval-7-Copy-3" fill="none" stroke="url(#Oval-7-Copy-3_1_)" stroke-width="1.465" d="M-100,528.7
					c95.9-18.7,167.6-46.2,160.3-61.5c-7.4-15.3-91-12.6-186.9,6.1c-95.9,18.7-167.6,46.2-160.3,61.5
					C-279.6,550.1-195.9,547.4-100,528.7L-100,528.7z"/>
				<path id="Fill-9" fill="#E46E2E" d="M-107,555.9c-24.6,0-46-8.8-57.2-21.9c8.4,23.4,30.9,40.2,57.2,40.2s48.7-16.8,57.2-40.2
					C-61,547.1-82.4,555.9-107,555.9"/>
				<path id="Fill-10" fill="#E46E2E" d="M-107.4,470.6c24.6,0,46,8.8,57.2,21.9c-8.4-23.4-30.9-40.2-57.2-40.2
					s-48.7,16.8-57.2,40.2C-153.4,479.4-132,470.6-107.4,470.6"/>
				<path id="Fill-11" fill="#767474" d="M-150.1,587.5c-5.3,0.2-9.7-3.9-10-9.1c-0.2-5.3,3.9-9.7,9.1-10c5.3-0.2,9.7,3.9,10,9.1
					C-140.8,582.8-144.9,587.3-150.1,587.5z"/>
				<path id="Fill-12" fill="#767474" d="M-157.5,463c-3.3,0.1-6.1-2.4-6.2-5.7c-0.1-3.3,2.4-6.1,5.7-6.2c3.3-0.1,6.1,2.4,6.2,5.7
					S-154.2,462.8-157.5,463z"/>
				<path id="Fill-8" fill="#767474" d="M-62.6,455.9c-5.1,0.2-9.4-3.8-9.7-8.9c-0.2-5.1,3.8-9.5,8.9-9.7c5.1-0.2,9.4,3.8,9.7,8.9
					C-53.5,451.3-57.5,455.7-62.6,455.9z"/>
				<g id="Group-Copy-_x2B_-hub" transform="translate(0.000000, 52.000000)">
					<g id="Group-Copy" transform="translate(0.297974, 4.567815)">
						<path id="Fill-1" fill="#313940" d="M-218.3,464.2c0,5.5-0.4,7.3-1.6,8.6c-1,1.1-2.7,1.6-4.6,1.8l0.4,3.3
							c2.2,0,5.3-0.8,7.2-2.6c2.1-2.1,2.8-5,2.8-9.4V445h-4.2V464.2"/>
						<path id="Fill-2" fill="#313940" d="M-186.9,461.7c0,2.4,0,4.5,0.2,6.3h-3.7l-0.2-3.8h-0.1c-1.1,1.9-3.5,4.3-7.7,4.3
							c-3.6,0-8-2-8-10.1V445h4.2v12.7c0,4.4,1.3,7.3,5.2,7.3c2.8,0,4.8-1.9,5.5-3.8c0.2-0.6,0.4-1.4,0.4-2.1V445h4.2V461.7"/>
						<path id="Fill-3" fill="#313940" d="M-178.9,452.5c0-2.9-0.1-5.3-0.2-7.5h3.8l0.2,3.9h0.1c1.7-2.8,4.4-4.5,8.2-4.5
							c5.6,0,9.8,4.7,9.8,11.7c0,8.3-5.1,12.3-10.5,12.3c-3.1,0-5.7-1.3-7.1-3.6h-0.1v12.5h-4.2V452.5L-178.9,452.5z M-174.8,458.6
							c0,0.6,0.1,1.2,0.2,1.7c0.8,2.9,3.3,4.9,6.3,4.9c4.4,0,7-3.6,7-8.9c0-4.6-2.4-8.5-6.9-8.5c-2.9,0-5.5,2-6.4,5.2
							c-0.1,0.5-0.3,1.1-0.3,1.7V458.6L-174.8,458.6z"/>
						<path id="Fill-4" fill="#313940" d="M-149.5,445l5.1,13.6c0.5,1.5,1.1,3.3,1.5,4.7h0.1c0.4-1.4,0.9-3.1,1.5-4.8l4.6-13.5h4.4
							l-6.3,16.4c-3,7.9-5.1,11.9-7.9,14.4c-2.1,1.8-4.1,2.5-5.2,2.7l-1.1-3.5c1.1-0.3,2.4-1,3.7-2c1.1-0.9,2.6-2.5,3.5-4.7
							c0.2-0.4,0.3-0.8,0.3-1c0-0.2-0.1-0.6-0.3-1.1l-8.6-21.2H-149.5"/>
						<path id="Fill-5" fill="#313940" d="M-121.3,438.4v6.6h6v3.2h-6v12.4c0,2.8,0.8,4.5,3.2,4.5c1.1,0,1.9-0.1,2.4-0.3l0.2,3.1
							c-0.8,0.3-2.1,0.6-3.7,0.6c-2,0-3.5-0.6-4.5-1.8c-1.2-1.2-1.6-3.3-1.6-6v-12.5h-3.6V445h3.6v-5.5L-121.3,438.4"/>
						<path id="Fill-6" fill="#313940" d="M-107.5,457.3c0.1,5.7,3.7,8,7.9,8c3,0,4.8-0.5,6.4-1.2l0.7,3c-1.5,0.7-4,1.4-7.7,1.4
							c-7.1,0-11.4-4.7-11.4-11.6c0-6.9,4.1-12.4,10.9-12.4c7.6,0,9.6,6.6,9.6,10.8c0,0.9-0.1,1.5-0.1,1.9H-107.5L-107.5,457.3z
							 M-95.2,454.3c0-2.7-1.1-6.8-5.8-6.8c-4.3,0-6.1,3.9-6.5,6.8H-95.2L-95.2,454.3z"/>
						<path id="Fill-7" fill="#313940" d="M-84.9,452.2c0-2.7,0-5-0.2-7.2h3.7l0.1,4.5h0.2c1.1-3.1,3.6-5,6.4-5c0.5,0,0.8,0,1.2,0.1
							v3.9c-0.4-0.1-0.9-0.1-1.4-0.1c-3,0-5.1,2.2-5.6,5.4c-0.1,0.6-0.2,1.2-0.2,1.9V468h-4.2V452.2"/>
					</g>
					<path id="hub" fill="#999999" d="M-65.6,472.5h4.1v-13.7c0-0.8,0-1.4,0.3-2c0.7-2.2,2.9-4.1,5.5-4.1c3.9,0,5.2,3.1,5.2,6.7v13
						h4.1v-13.5c0-7.8-4.9-9.7-7.9-9.7c-1.5,0-3,0.5-4.2,1.2c-1.3,0.7-2.3,1.7-2.9,2.9h-0.1v-14.1h-4.1V472.5z M-20.7,449.9h-4.1
						v13.9c0,0.7-0.1,1.5-0.4,2.1c-0.7,1.8-2.7,3.7-5.4,3.7c-3.7,0-5.1-2.9-5.1-7.2v-12.5h-4.1v13.2c0,7.9,4.3,9.9,7.8,9.9
						c4,0,6.4-2.4,7.5-4.2h0.1l0.2,3.7h3.6c-0.1-1.8-0.2-3.8-0.2-6.2V449.9z M-10.5,472.5l0.2-3.7h0.1c1.7,3,4.3,4.3,7.6,4.3
						c5.1,0,10.1-4,10.1-12.1c0-6.9-3.9-11.5-9.5-11.5c-3.6,0-6.3,1.6-7.7,4.2h-0.1v-14.2h-4.1v27.4c0,2-0.1,4.3-0.2,5.8H-10.5z
						 M-9.8,459.4c0-0.7,0.1-1.2,0.2-1.7c0.8-3.1,3.5-5.1,6.3-5.1c4.4,0,6.7,3.9,6.7,8.4c0,5.2-2.6,8.7-6.9,8.7c-3,0-5.4-2-6.2-4.8
						c-0.1-0.5-0.2-1-0.2-1.5V459.4z"/>
				</g>
			</g>
		</g>
	</g>
</g>
</svg>
